<svg version="1.1" id="Layer_1" xmlns="http://www.w3.org/2000/svg" xmlns:xlink="http://www.w3.org/1999/xlink" x="0px" y="0px"
	 width="100%" viewBox="0 0 153 155" enable-background="new 0 0 153 155" xml:space="preserve">
<path fill="#000000" opacity="1.000000" stroke="none" 
	d="
M84.000000,156.000000 
	C56.000004,156.000000 28.500006,156.000000 1.000007,156.000000 
	C1.000005,104.333344 1.000005,52.666687 1.000003,1.000021 
	C51.999985,1.000014 102.999969,1.000014 153.999969,1.000007 
	C153.999969,52.666645 153.999969,104.333290 153.999985,155.999969 
	C130.833328,156.000000 107.666664,156.000000 84.000000,156.000000 
M68.499954,144.871536 
	C82.490845,144.871567 96.504288,144.368683 110.467087,144.995010 
	C129.221146,145.836258 144.432602,131.356171 144.000366,111.352448 
	C143.507538,88.544464 143.929825,65.717491 143.844284,42.899181 
	C143.830078,39.109257 143.567368,35.263699 142.882111,31.542814 
	C140.160995,16.767544 125.173782,7.775150 114.861649,7.885658 
	C81.054001,8.247949 47.240021,8.016628 13.428480,8.028255 
	C12.000878,8.028747 10.573327,8.176947 9.019082,8.263379 
	C9.019082,43.957306 9.359878,79.259705 8.856694,114.550072 
	C8.646018,129.325745 21.295353,145.136353 39.518257,144.897842 
	C48.844006,144.775787 58.172626,144.873276 68.499954,144.871536 
z"/>
<path fill="#FEFEFE" opacity="1.000000" stroke="none" 
	d="
M67.999954,144.871536 
	C58.172626,144.873276 48.844006,144.775787 39.518257,144.897842 
	C21.295353,145.136353 8.646018,129.325745 8.856694,114.550072 
	C9.359878,79.259705 9.019082,43.957306 9.019082,8.263379 
	C10.573327,8.176947 12.000878,8.028747 13.428480,8.028255 
	C47.240021,8.016628 81.054001,8.247949 114.861649,7.885658 
	C125.173782,7.775150 140.160995,16.767544 142.882111,31.542814 
	C143.567368,35.263699 143.830078,39.109257 143.844284,42.899181 
	C143.929825,65.717491 143.507538,88.544464 144.000366,111.352448 
	C144.432602,131.356171 129.221146,145.836258 110.467087,144.995010 
	C96.504288,144.368683 82.490845,144.871567 67.999954,144.871536 
M80.982941,48.202282 
	C73.659958,50.523129 68.507835,55.473145 64.717117,61.852619 
	C52.750843,59.532001 43.546387,63.599648 38.983402,73.087784 
	C34.894451,81.590240 37.088276,91.555496 44.452518,97.930695 
	C52.642715,105.020943 61.636421,104.590965 73.865753,96.490051 
	C82.390366,101.578720 91.314056,102.706604 100.462250,98.351494 
	C113.270561,92.253952 119.031990,78.147087 114.370171,64.840065 
	C109.759483,51.678963 96.546936,44.858223 80.982941,48.202282 
z"/>
<path fill="#070705" opacity="1.000000" stroke="none" 
	d="
M81.379524,48.108124 
	C96.546936,44.858223 109.759483,51.678963 114.370171,64.840065 
	C119.031990,78.147087 113.270561,92.253952 100.462250,98.351494 
	C91.314056,102.706604 82.390366,101.578720 73.865753,96.490051 
	C61.636421,104.590965 52.642715,105.020943 44.452518,97.930695 
	C37.088276,91.555496 34.894451,81.590240 38.983402,73.087784 
	C43.546387,63.599648 52.750843,59.532001 64.717117,61.852619 
	C68.507835,55.473145 73.659958,50.523129 81.379524,48.108124 
M83.706329,92.120453 
	C94.988525,94.836647 105.270294,88.686821 107.612167,77.821671 
	C109.757957,67.866219 102.922401,57.499660 92.779877,55.327572 
	C83.793549,53.403095 73.972008,59.075535 71.042236,67.882187 
	C67.708969,77.901680 72.283272,87.179062 83.706329,92.120453 
M51.568542,70.786957 
	C46.638687,73.731316 44.424271,78.177902 45.181789,83.756073 
	C45.908943,89.110634 49.041542,92.843552 54.353230,94.387794 
	C59.409328,95.857742 63.761509,94.612732 66.457130,91.760391 
	C64.822845,85.185272 62.528271,79.554611 62.273586,73.833138 
	C62.054802,68.918144 59.944988,68.698631 56.492260,69.130211 
	C55.039886,69.311760 53.643524,69.941345 51.568542,70.786957 
z"/>
<path fill="#FDBA1E" opacity="1.000000" stroke="none" 
	d="
M83.311905,92.043709 
	C72.283272,87.179062 67.708969,77.901680 71.042236,67.882187 
	C73.972008,59.075535 83.793549,53.403095 92.779877,55.327572 
	C102.922401,57.499660 109.757957,67.866219 107.612167,77.821671 
	C105.270294,88.686821 94.988525,94.836647 83.311905,92.043709 
z"/>
<path fill="#F9B81D" opacity="1.000000" stroke="none" 
	d="
M51.895119,70.577110 
	C53.643524,69.941345 55.039886,69.311760 56.492260,69.130211 
	C59.944988,68.698631 62.054802,68.918144 62.273586,73.833138 
	C62.528271,79.554611 64.822845,85.185272 66.457130,91.760391 
	C63.761509,94.612732 59.409328,95.857742 54.353230,94.387794 
	C49.041542,92.843552 45.908943,89.110634 45.181789,83.756073 
	C44.424271,78.177902 46.638687,73.731316 51.895119,70.577110 
z"/>
</svg>